<?xml version="1.0" encoding="utf-8"?>
<!-- Generator: Adobe Illustrator 19.1.0, SVG Export Plug-In . SVG Version: 6.00 Build 0)  -->
<svg version="1.1" xmlns="http://www.w3.org/2000/svg" xmlns:xlink="http://www.w3.org/1999/xlink" x="0px" y="0px"
	 viewBox="0 0 500 170" style="enable-background:new 0 0 500 170;" xml:space="preserve">
<style type="text/css">
	.st0{fill:none;stroke:#546E7A;stroke-width:2;stroke-miterlimit:10;}
	.st1{fill:none;stroke:#03A8F3;stroke-width:2;stroke-miterlimit:10;}
	.st2{fill:none;stroke:#795548;stroke-width:2;stroke-miterlimit:10;}
	.st3{fill:none;stroke:#4CAE50;stroke-width:2;stroke-miterlimit:10;}
	.st4{fill:none;stroke:#FF5722;stroke-width:2;stroke-miterlimit:10;}
	.st5{fill:none;stroke:#FF2424;stroke-width:2;stroke-miterlimit:10;}
	.st6{fill:none;stroke:#FF8965;stroke-width:2;stroke-miterlimit:10;}
	.st7{fill:none;stroke:#FFC007;stroke-width:2;stroke-miterlimit:10;}
	.st8{fill:none;stroke:#546E7A;stroke-width:2;stroke-linecap:round;stroke-miterlimit:10;}
	.st9{fill:#FFFFFF;}
	.st10{fill:none;stroke:#424242;stroke-width:2;stroke-miterlimit:10;}
	.st11{fill:none;stroke:#FF9800;stroke-width:2;stroke-miterlimit:10;}
	.st12{fill:none;stroke:#424242;stroke-width:2;stroke-linecap:round;stroke-miterlimit:10;}
	.st13{fill:none;stroke:#4A76A8;stroke-width:2;stroke-linecap:round;stroke-miterlimit:10;}
</style>
<g id="Слой_4">
	<path class="st0" d="M390.2,109.1"/>
	<path class="st0" d="M397.4,114.5"/>
	<path class="st0" d="M397.6,108.9"/>
	<path class="st0" d="M397,114.2"/>
	<line class="st1" x1="58" y1="120.5" x2="23.5" y2="120.5"/>
	<line class="st2" x1="251.1" y1="104.5" x2="251.1" y2="108.5"/>
	<line class="st2" x1="280.1" y1="104.4" x2="280.1" y2="108.6"/>
	<path class="st3" d="M114.6,77.6c0-3.1,1.9-5.8,4.6-7c0.1-4.2,3.5-7.6,7.7-7.6c4.2,0,7.7,3.4,7.7,7.7c0,0.5,0,0.9-0.1,1.3
		c3.1,1,5.3,3.9,5.3,7.3c0,2-0.8,3.8-2,5.2c0.4,0.9,0.6,1.9,0.6,2.9c0,4.2-3.4,7.7-7.7,7.7c-2.3,0-4.3-1-5.7-2.5
		c-0.8,0.3-1.7,0.5-2.6,0.5c-4.2,0-7.7-3.4-7.7-7.7c0-1.4,0.4-2.7,1-3.8C115,80.3,114.6,79,114.6,77.6z"/>
	<path class="st3" d="M172.3,77.7c0-2.5-1.5-4.6-3.7-5.6c0-3.3-2.8-6-6.1-6c-3.4,0-6.1,2.7-6.1,6.1c0,0.4,0,0.7,0.1,1.1
		c-2.4,0.8-4.2,3.1-4.2,5.8c0,1.6,0.6,3,1.6,4.1c-0.3,0.7-0.4,1.5-0.4,2.3c0,3.4,2.7,6.1,6.1,6.1c1.8,0,3.4-0.8,4.5-2
		c0.6,0.2,1.3,0.4,2.1,0.4c3.4,0,6.1-2.7,6.1-6.1c0-1.1-0.3-2.2-0.8-3.1C172,79.9,172.3,78.8,172.3,77.7z"/>
	<line class="st2" x1="163.6" y1="101.3" x2="163.6" y2="76.4"/>
	<line class="st1" x1="459" y1="118.8" x2="479.8" y2="118.8"/>
	<path class="st3" d="M207.7,88.5c-0.8,0-1.6,0.2-2.3,0.5c0-0.1,0-0.2,0-0.2c0-2.8-2.3-5.1-5.1-5.1c-0.4,0-0.8,0.1-1.2,0.2
		c-0.6-2.1-2.5-3.6-4.8-3.6c-2.4,0-4.5,1.7-4.9,4c-2.5,0.6-4.3,2.8-4.3,5.4c0,0.1,0,0.3,0,0.4c-2.8,0.1-5,2.3-5,5.1
		c0,2.3,1.7,4.2,3.8,4.9l23.2,0.1l0.2,0.1c0.2,0,0.1-0.3,0.3-0.3c3.2,0,5.8-2.6,5.8-5.8S210.9,88.5,207.7,88.5z"/>
	<path class="st3" d="M311.9,93.8c1.2,0,2.3,0.2,3.3,0.7c0-0.1,0-0.2,0-0.3c0-3.9,3.2-7.1,7.1-7.1c0.6,0,1.2,0.1,1.7,0.2
		c0.9-2.9,3.6-5,6.7-5c3.4,0,6.3,2.4,6.9,5.7c3.5,0.8,6,3.9,6,7.6c0,0.2,0,0.4,0,0.6c3.9,0.1,7,3.2,7,7.1c0,3.2-2.4,5.7-5.3,6.6
		l-32.6,0.4l-0.8-0.3c-0.3,0,0.3,0,0,0c-4.5,0-8.1-3.6-8.1-8.1C303.8,97.4,307.4,93.8,311.9,93.8z"/>
	<path class="st3" d="M440,105c-0.7-1.4-1-3-1-4.5c0-3.6,1.9-6.7,4.8-8.4c-0.2-0.7-0.3-1.4-0.3-2.2c0-4.5,3.6-8.1,8.1-8.1
		c1.4,0,2.7,0.4,3.8,1c2.5-3.6,6.7-6,11.4-6c7.7,0,13.9,6.2,13.9,13.9c0,0.6-0.1,1.3-0.1,1.9c1.5,0.2,2.8,1.1,3.5,2.3
		c0.3,0,0.6,0,0.9,0c4.4,0,7.9,3.6,7.9,7.9c0,4.4-3.5,8.3-7.9,8.3h-26"/>
	<line class="st3" x1="0" y1="111.1" x2="52.9" y2="111.1"/>
	<line class="st3" x1="459.7" y1="111.1" x2="500" y2="111.1"/>
	<line class="st2" x1="126.8" y1="101.9" x2="126.8" y2="75.9"/>
	<path class="st3" d="M89,98.3c1.2-1.6,1.9-3.5,1.9-5.5c0-3-1.6-5.6-4-7c0.2-0.6,0.3-1.2,0.3-1.9c0-3.7-3-6.7-6.7-6.7
		c-1.2,0-2.2,0.3-3.2,0.8c-2.1-3-5.6-5-9.6-5C61.2,73,56,78.2,56,84.7c0,0.5,0,1.1,0.1,1.6c-1.2,0.2-2.3,0.9-3,1.9
		c-0.2,0-0.5,0-0.7,0c-3.7,0-6.6,3-6.6,6.6c0,0.3,0,0.6,0.1,0.9"/>
	<path class="st4" d="M98.6,132.1c-23.8-0.9-45.3-14.6-56-35.9l0,0l19.6,2.1l83.3,5.5l13,0c0.9-0.1,1.5-0.8,1.5-1.7l0,0
		c0-0.9,0.8-1.7,1.7-1.7h69.4c2.3,0,4.3,1.9,4.3,4.3v0c0,2.4,1.9,4.3,4.3,4.3l48.6,0l1.8,0l0.9,0"/>
	<path class="st5" d="M313.7,134.7"/>
	<path class="st5" d="M345.6,134.7"/>
	<path class="st4" d="M301.5,108.8l1.1,0c0.5,0,0.9,0.4,0.9,0.9l0,0c0,0.5,0.4,0.9,0.9,0.9l94.2-1.7c1.1,0,2-0.9,2-2l0,0
		c0-1.1,0.9-2,2-2l54.3,0c1.1,0,2,0.9,2,2l0,11.4c0,1.1-0.9,2-2,2h-0.5c-6.6,0-11.9,5.3-11.9,11.9v0"/>
	<circle class="st0" cx="266.7" cy="116.5" r="1.9"/>
	<circle class="st0" cx="279.6" cy="116.5" r="1.9"/>
	<circle class="st0" cx="327.2" cy="116.2" r="1.9"/>
	<circle class="st0" cx="340.1" cy="116" r="1.9"/>
	<circle class="st0" cx="424.6" cy="113" r="1.9"/>
	<circle class="st0" cx="411.8" cy="113" r="1.9"/>
	<path class="st0" d="M354.3,116.4"/>
	<circle class="st0" cx="354" cy="115.8" r="1.9"/>
	<circle class="st0" cx="366.9" cy="115.6" r="1.9"/>
	<path class="st0" d="M381.4,116.8"/>
	<path class="st0" d="M314.6,117.2"/>
	<path class="st0" d="M422.8,113"/>
	<path class="st0" d="M358.1,116.4"/>
	<circle class="st0" cx="170.6" cy="116.3" r="1.9"/>
	<circle class="st0" cx="183.5" cy="116.3" r="1.9"/>
	<path class="st0" d="M197.7,115.9"/>
	<circle class="st0" cx="197.4" cy="116.3" r="1.9"/>
	<path class="st0" d="M201.4,115.9"/>
	<line class="st1" x1="20.1" y1="120.5" x2="14.1" y2="120.5"/>
	<line class="st1" x1="10.9" y1="120.5" x2="4.9" y2="120.5"/>
	<line class="st1" x1="482.1" y1="118.8" x2="488.1" y2="118.8"/>
	<line class="st1" x1="491.3" y1="118.8" x2="497.3" y2="118.8"/>
	<line class="st1" x1="21.5" y1="144.5" x2="60" y2="144.5"/>
	<line class="st1" x1="68.3" y1="144.5" x2="80.5" y2="144.5"/>
	<line class="st1" x1="232.6" y1="148.7" x2="271.1" y2="148.7"/>
	<line class="st1" x1="279.5" y1="148.7" x2="291.6" y2="148.7"/>
	<line class="st1" x1="481.8" y1="144.5" x2="443.3" y2="144.5"/>
	<line class="st1" x1="434.9" y1="144.5" x2="422.8" y2="144.5"/>
	<line class="st1" x1="414.7" y1="144.5" x2="408.2" y2="144.5"/>
	<polyline class="st1" points="116.1,153.6 142.9,153.6 146.2,150.3 149.8,153.9 166.8,153.9 	"/>
	<line class="st1" x1="171.4" y1="153.9" x2="177.8" y2="153.9"/>
	<polyline class="st1" points="56.9,132.1 107.7,132.1 111,128.8 114.7,132.4 131.7,132.4 	"/>
	<polyline class="st1" points="456.5,132.4 439.5,132.4 435.9,128.8 432.6,132.1 381.8,132.1 378.7,129 375.5,132.3 371.8,128.5 
		368,132.4 359.1,132.4 	"/>
	<line class="st1" x1="136.2" y1="132.4" x2="228.3" y2="132.4"/>
	<line class="st1" x1="232.6" y1="132.4" x2="242.3" y2="132.4"/>
	<line class="st1" x1="342.3" y1="132.4" x2="355.8" y2="132.4"/>
	<line class="st1" x1="463.4" y1="132.4" x2="469.8" y2="132.4"/>
	<line class="st1" x1="249.7" y1="132.4" x2="313.7" y2="132.4"/>
	<polyline class="st1" points="292.6,158.7 320.6,158.7 326.2,153.1 331.7,158.6 350.6,158.6 	"/>
	<polyline class="st1" points="406.2,158.7 410.9,154 415.6,158.7 431.3,158.7 	"/>
	<line class="st1" x1="436" y1="158.7" x2="441.8" y2="158.7"/>
	<line class="st1" x1="56.5" y1="161.7" x2="80.5" y2="161.7"/>
	<line class="st1" x1="84.7" y1="161.7" x2="90.5" y2="161.7"/>
	<line class="st1" x1="53.2" y1="161.7" x2="48.2" y2="161.7"/>
	<polyline class="st1" points="204.2,163.7 208,159.8 211.8,163.6 218.2,163.6 	"/>
	<line class="st1" x1="228" y1="163.7" x2="222.5" y2="163.7"/>
	<line class="st1" x1="156.3" y1="138.8" x2="178.8" y2="138.8"/>
	<line class="st1" x1="475" y1="163.7" x2="492.8" y2="163.7"/>
	<line class="st1" x1="21.5" y1="130.8" x2="0" y2="130.8"/>
	<path class="st3" d="M500,111.1"/>
	<path class="st3" d="M301.2,111.1"/>
	<path class="st3" d="M388.3,58.5c0-5.5-3.3-10.2-8-12.2c-0.1-7.3-6-13.2-13.4-13.2c-7.4,0-13.4,6-13.4,13.4c0,0.8,0.1,1.6,0.2,2.3
		c-5.3,1.8-9.2,6.8-9.2,12.7c0,3.5,1.3,6.6,3.5,9c-0.6,1.5-1,3.2-1,5c0,7.4,6,13.4,13.4,13.4c3.9,0,7.4-1.7,9.9-4.4
		c1.4,0.5,2.9,0.8,4.5,0.8c7.4,0,13.4-6,13.4-13.4c0-2.4-0.7-4.7-1.8-6.7C387.6,63.2,388.3,61,388.3,58.5z"/>
	<line class="st2" x1="366.9" y1="105" x2="366.9" y2="65.2"/>
	<line class="st2" x1="366.4" y1="85" x2="356.1" y2="76.7"/>
	<line class="st2" x1="366.9" y1="77.4" x2="378.4" y2="67.4"/>
	<path class="st3" d="M367.6,37.8c-5.2,0-9.5,4.2-9.5,9.5"/>
	<path class="st3" d="M354.8,53.4c-4.9,1.9-7.3,7.4-5.4,12.2"/>
	<path class="st3" d="M7.9,58.5c0-5.5,3.3-10.2,8-12.2c0.1-7.3,6-13.2,13.4-13.2c7.4,0,13.4,6,13.4,13.4c0,0.8-0.1,1.6-0.2,2.3
		c5.3,1.8,9.2,6.8,9.2,12.7c0,3.5-1.3,6.6-3.5,9c0.6,1.5,1,3.2,1,5c0,7.4-6,13.4-13.4,13.4c-3.9,0-7.4-1.7-9.9-4.4
		c-1.4,0.5-2.9,0.8-4.5,0.8c-7.4,0-13.4-6-13.4-13.4c0-2.4,0.7-4.7,1.8-6.7C8.5,63.2,7.9,61,7.9,58.5z"/>
	<line class="st2" x1="29.2" y1="110.1" x2="29.2" y2="65.2"/>
	<line class="st2" x1="29.7" y1="80.8" x2="40.1" y2="72.5"/>
	<line class="st2" x1="29.2" y1="81.4" x2="17.7" y2="71.4"/>
	<path class="st3" d="M28.6,37.8c5.2,0,9.5,4.2,9.5,9.5"/>
	<path class="st3" d="M41.3,53.4c4.9,1.9,7.3,7.4,5.4,12.2"/>
	<line class="st2" x1="126.5" y1="88.5" x2="130.6" y2="84.5"/>
	<line class="st2" x1="126.7" y1="85.8" x2="120.1" y2="80.1"/>
	<path class="st3" d="M132,75.2c2.8,1.1,4.2,4.2,3.1,7"/>
	<path class="st3" d="M125.3,66.2c3-0.4,5.7,1.8,6,4.7"/>
	<line class="st2" x1="163.5" y1="86.5" x2="158.2" y2="82"/>
	<path class="st3" d="M158.2,75.9c-2.2,0.9-3.3,3.4-2.5,5.6"/>
	<path class="st3" d="M169.3,82.2c0.4,2.4-1.2,4.6-3.6,4.9"/>
	<path class="st3" d="M398.6,94.4c0-1.6-1-3-2.4-3.7c0-2.2-1.8-3.9-4-3.9c-2.2,0-4,1.8-4,4c0,0.2,0,0.5,0.1,0.7
		c-1.6,0.5-2.7,2-2.7,3.8c0,1,0.4,2,1.1,2.7c-0.2,0.5-0.3,1-0.3,1.5c0,2.2,1.8,4,4,4c1.2,0,2.2-0.5,3-1.3c0.4,0.2,0.9,0.2,1.4,0.2
		c2.2,0,4-1.8,4-4c0-0.7-0.2-1.4-0.5-2C398.4,95.8,398.6,95.1,398.6,94.4z"/>
	<line class="st2" x1="392.8" y1="108.1" x2="392.8" y2="97.9"/>
	<path class="st3" d="M436.3,76.9c0-4.5-2.7-8.4-6.6-10.1c-0.1-6-5-10.8-11-10.8c-6.1,0-11,4.9-11,11c0,0.6,0.1,1.3,0.2,1.9
		c-4.4,1.5-7.5,5.6-7.5,10.4c0,2.9,1.1,5.5,2.9,7.4c-0.5,1.3-0.8,2.7-0.8,4.1c0,6.1,4.9,11,11,11c3.2,0,6.1-1.4,8.1-3.6
		c1.2,0.4,2.4,0.7,3.7,0.7c6.1,0,11-4.9,11-11c0-2-0.5-3.9-1.5-5.5C435.8,80.8,436.3,78.9,436.3,76.9z"/>
	<line class="st2" x1="419.5" y1="103.9" x2="419.5" y2="80.4"/>
	<line class="st2" x1="411.7" y1="84.6" x2="419.5" y2="93.6"/>
	<path class="st3" d="M425.4,68c0.2-4.3-3.1-8-7.4-8.2"/>
	<path class="st3" d="M425.8,95.1c4.1-1.2,6.5-5.5,5.4-9.6"/>
	<path class="st3" d="M450.9,94.2c3-0.3,5.2-3,4.9-6"/>
	<path class="st3" d="M476.4,89.8c-1.4-5.9-7.3-9.5-13.1-8.1"/>
	<path class="st3" d="M80.9,87.7c-2.5-0.3-4.3-2.5-4.1-5"/>
	<path class="st3" d="M188.9,90.6c0.2-1.9,1.9-3.3,3.8-3.1"/>
	<path class="st3" d="M338.2,96.7c-0.3-2.7-2.7-4.6-5.4-4.4"/>
	<path class="st6" d="M260.4,60.6V63c0,1.1-0.9,2-2,2h-2.7"/>
	<path class="st6" d="M269.2,59.8v3.4c0,1.1,0.9,2,2,2h2.4"/>
	<path class="st3" d="M59.6,84c1.2-4.9,6.1-7.9,11-6.8"/>
	<path class="st3" d="M9.8,111.1c1.2-1.6,1.9-3.5,1.9-5.5c0-3-1.6-5.6-4-7c0.2-0.6,0.3-1.2,0.3-1.9c0-3.7-3-6.7-6.7-6.7
		c-0.4,0-0.8,0-1.2,0.1"/>
	<path class="st3" d="M392,108.5"/>
	<path class="st3" d="M385.2,102"/>
	<path class="st3" d="M376.4,102"/>
	<circle class="st7" cx="145.4" cy="24.3" r="16.4"/>
	<path class="st7" d="M145.4-9.3"/>
	<path class="st7" d="M204.8,83.7"/>
	<path class="st7" d="M169.3,0.6"/>
	<path class="st7" d="M108.3,61.5"/>
	<line class="st7" x1="157.3" y1="36.1" x2="164.8" y2="43.6"/>
	<line class="st7" x1="122.3" y1="1.1" x2="134.2" y2="12.9"/>
	<line class="st7" x1="115.9" y1="53.4" x2="110" y2="59.3"/>
	<line class="st7" x1="133.2" y1="36.1" x2="119.5" y2="49.8"/>
	<line class="st7" x1="168.4" y1="0.9" x2="156.4" y2="12.9"/>
	<line class="st7" x1="188.1" y1="22.8" x2="194.8" y2="22.8"/>
	<line class="st7" x1="162.3" y1="22.8" x2="183.3" y2="22.8"/>
	<line class="st7" x1="108.7" y1="22.8" x2="129.6" y2="22.8"/>
	<line class="st7" x1="95" y1="22.8" x2="103.8" y2="22.8"/>
	<line class="st7" x1="145.4" y1="63.7" x2="145.4" y2="71.7"/>
	<line class="st7" x1="145.4" y1="41.6" x2="145.4" y2="59.3"/>
	<line class="st7" x1="145.4" y1="1.1" x2="145.4" y2="8.8"/>
	<path class="st8" d="M228.3,87.5c0.1,0.4,0.2,0.8,0.4,1.2l4,7.2c0.2,0.4,0.4,0.8,0.6,1.2l0.1,0.2c0.4,0.7,1,1.2,1.7,1.4
		c2.1,0.7,3.1,0.2,3.9-0.5c0.6-0.3,1.1-0.8,1.4-1.4l8.2-12.7"/>
	<path class="st8" d="M249.2,68.8c-1,0.3-1.8,1-2.4,1.9l-10.5,16.4c-0.1,0.1-0.2,0.1-0.3,0l-0.5-0.9"/>
	<line class="st8" x1="235.7" y1="86.6" x2="237.9" y2="90.4"/>
	<rect x="287.2" y="110.6" class="st9" width="2.7" height="1.9"/>
	<line class="st4" x1="172.5" y1="53" x2="188" y2="61.8"/>
	<line class="st4" x1="189.7" y1="63.1" x2="191.7" y2="64.1"/>
	<line class="st4" x1="348.7" y1="143" x2="332.7" y2="135.2"/>
	<line class="st4" x1="330.6" y1="134" x2="328.6" y2="133"/>
	<path class="st1" d="M489.1,23.5h-8.3c-0.4-2.9-2.9-5.2-5.9-5.2c-0.7,0-1.4,0.1-2,0.3c-0.8-2.8-3.2-4.9-6.2-5.1
		c-1-2.4-3.4-4.1-6.1-4.1c-1,0-1.9,0.2-2.8,0.6c-1.8-3.5-5.5-5.9-9.7-5.9c-5.7,0-10.4,4.4-10.9,10.1c-0.8-0.2-1.7-0.4-2.6-0.4
		c-5.3,0-9.6,4.3-9.6,9.6h-7.4"/>
	<line class="st1" x1="414.9" y1="23.5" x2="409.3" y2="23.5"/>
	<line class="st1" x1="404.9" y1="23.5" x2="402.3" y2="23.5"/>
	<line class="st1" x1="491.5" y1="23.5" x2="495.6" y2="23.5"/>
	<path class="st1" d="M4,32.7h4.5c0-4.7,3.8-8.6,8.6-8.6c0,0,0,0,0.1,0c0-0.2-0.1-0.5-0.1-0.8c0-3,2.4-5.5,5.5-5.5
		c1.3,0,2.4,0.4,3.3,1.1c2.6-3.3,6.7-5.4,11.2-5.4c6.5,0,12,4.3,13.8,10.2c1.3-1.4,3.2-2.3,5.3-2.3c4,0,7.3,3.3,7.3,7.3
		c0,0.1,0,0.1,0,0.2c0.4-0.1,0.8-0.2,1.3-0.2c2.4,0,4.4,1.6,5,3.9h11.4"/>
	<line class="st1" x1="84" y1="32.7" x2="89.5" y2="32.7"/>
	<line class="st1" x1="92.3" y1="32.7" x2="95.9" y2="32.7"/>
	<path class="st1" d="M330,63.4c2.3-1.2,3.9-3.6,3.9-6.3c0-3.2-2.1-5.8-4.9-6.7c-0.3-3.8-3.4-6.8-7.3-6.8c-3.5,0-6.5,2.5-7.2,5.9
		c-2.9,0.4-5.3,2.6-6.1,5.4c-0.5-0.2-1.1-0.3-1.7-0.3c-2.5,0-4.6,1.8-5.1,4.1H296"/>
	<line class="st1" x1="293.7" y1="58.5" x2="289.1" y2="58.5"/>
	<path class="st1" d="M263.9,20.1h-17.2c0.1-0.4,0.2-0.8,0.2-1.3c0-2.2-1.8-3.9-3.9-3.9c-1,0-2,0.4-2.7,1.1
		c-0.6-0.7-1.3-1.3-2.1-1.7c0-3.2-2.6-5.8-5.8-5.8c-0.8,0-1.5,0.2-2.2,0.4c-1.4-2.6-4.2-4.4-7.4-4.4c-4.3,0-7.9,3.2-8.3,7.4
		c-0.4-0.1-0.9-0.2-1.3-0.2c-2.7,0-5,2.2-5,5c0,1.3,0.5,2.6,1.4,3.4"/>
	<line class="st1" x1="267.5" y1="20.1" x2="271.4" y2="20.1"/>
	<line class="st1" x1="275.6" y1="20.1" x2="278.1" y2="20.1"/>
	<path class="st3" d="M119.9,67.4c-1.5-0.8-3.2-1.3-5-1.3c-3.9,0-7.2,2.1-9,5.2c-0.7-0.2-1.4-0.3-2.1-0.3c-0.1,0-0.1,0-0.2,0
		c0-0.3,0.1-0.7,0.1-1.1c0-6.7-5.5-12.2-12.2-12.2c-5.5,0-10.2,3.7-11.7,8.7c-0.3-0.1-0.6-0.2-1-0.3c-0.4-4.8-4.4-8.5-9.3-8.5
		c-0.8,0-1.6,0.1-2.3,0.3c-1.8-3.6-5.4-6-9.7-6c-2.8,0-5.4,1.1-7.3,2.8"/>
	<path class="st3" d="M13.9,47.7c-1.1-5.4-5.8-9.4-11.5-9.4c-0.8,0-1.6,0.1-2.4,0.2"/>
	<path class="st3" d="M423.4,50"/>
	<path class="st3" d="M500,48.9c-1.2-1.6-3.1-2.6-5.3-2.6c-1.1,0-2.1,0.3-3,0.7c-1-1.2-2.5-2-4.2-2c-0.6,0-1.1,0.1-1.6,0.3
		c-1.3-3-4.2-5.1-7.7-5.1c-4.4,0-8,3.4-8.3,7.8c-1-0.8-2.2-1.2-3.5-1.2c-1.4,0-2.7,0.5-3.7,1.4c-1.3-1-2.9-1.6-4.7-1.6
		c-1,0-2,0.2-3,0.6c-0.1-5.9-4.9-10.6-10.7-10.6c-5.1,0-9.4,3.6-10.5,8.4c-1.1-0.8-2.4-1.3-3.9-1.3c-0.8,0-1.6,0.2-2.4,0.5
		c0-0.2,0-0.4,0-0.6c0-3.3-2.7-5.9-5.9-5.9c-1.7,0-3.2,0.7-4.2,1.8c-1.8-2.8-5-4.6-8.5-4.6c-5.1,0-9.4,3.8-10.1,8.7
		c-1.3-0.8-2.8-1.3-4.4-1.3c-4.4,0-8.4,4.6-8.4,9.1"/>
	<line class="st0" x1="329.7" y1="116.2" x2="337.9" y2="116.1"/>
	<line class="st0" x1="268.9" y1="116.5" x2="277.1" y2="116.5"/>
	<line class="st0" x1="342.8" y1="116" x2="351.8" y2="115.9"/>
	<line class="st0" x1="355.6" y1="115.8" x2="364.5" y2="115.7"/>
	<line class="st0" x1="414.2" y1="113" x2="423.2" y2="113"/>
	<path class="st8" d="M258.4,65h-2.3"/>
	<path class="st8" d="M271.2,65.2h1.8"/>
	<path class="st4" d="M432.8,118.9"/>
	<path class="st4" d="M458.2,119.9"/>
	<path class="st4" d="M42.6,96.3c0,0,19.3,10.4,56.9,18.9c29.5,6.7,59.9,8.4,90.2,7.9l264.8-2.6"/>
</g>
<g id="Слой_5">
	<path class="st10" d="M288.1,110.5c0.1-0.6,0-0.6,0-1.1c0-4.3-1.8-8-5-10.4"/>
	<path class="st10" d="M243.7,108.6c0.2-4,2-7.4,5-9.7"/>
	<line class="st11" x1="249.2" y1="79.1" x2="256.8" y2="79.1"/>
	<line class="st11" x1="266.2" y1="79.1" x2="282.6" y2="79.1"/>
	<line class="st11" x1="249.2" y1="85.9" x2="256.8" y2="85.9"/>
	<line class="st11" x1="266.2" y1="85.9" x2="283" y2="85.9"/>
	<line class="st11" x1="248.8" y1="98.2" x2="256.8" y2="98.2"/>
	<line class="st11" x1="266.2" y1="98.2" x2="283" y2="98.2"/>
	<line class="st10" x1="247.6" y1="92.5" x2="284" y2="92.5"/>
	<line class="st10" x1="255.7" y1="95.4" x2="255.7" y2="89.3"/>
	<line class="st10" x1="267.3" y1="95.4" x2="267.3" y2="89.3"/>
	<path class="st10" d="M232.9,76.6l-5.3,0.4c-1,0.1-1.8,1-1.7,2l0.5,6.7c0.1,1,1,1.8,2,1.7l5.3-0.4c1-0.1,1.8-1,1.7-2l-0.5-6.7
		C234.8,77.3,233.9,76.5,232.9,76.6z"/>
	<line class="st12" x1="300.1" y1="119.9" x2="316.5" y2="128.5"/>
	<rect x="232.4" y="83" class="st9" width="1.8" height="1.5"/>
	<path class="st4" d="M167,46.8L167,46.8c-2.4,4.1-1,9.4,3,11.8l18.9,11.2c4.1,2.4,9.4,1,11.8-3v0c2.4-4.1,1-9.4-3-11.8l-18.9-11.2
		C174.7,41.4,169.4,42.7,167,46.8z"/>
	<path class="st4" d="M320.2,131.3L320.2,131.3c-2.1,4.2-0.4,9.4,3.8,11.5l19.7,9.9c4.2,2.1,9.4,0.4,11.5-3.8v0
		c2.1-4.2,0.4-9.4-3.8-11.5l-19.7-9.9C327.5,125.3,322.3,127,320.2,131.3z"/>
	<ellipse transform="matrix(0.9139 0.406 -0.406 0.9139 44.9392 -76.1305)" class="st12" cx="201.9" cy="67.8" rx="1.5" ry="3.3"/>
	
		<ellipse transform="matrix(0.9139 0.406 -0.406 0.9139 80.0646 -118.1469)" class="st12" cx="318.5" cy="129.6" rx="1.5" ry="3.3"/>
	<line class="st4" x1="174.4" y1="48.6" x2="190.6" y2="58.2"/>
	<line class="st4" x1="192.5" y1="59.3" x2="194.6" y2="60.3"/>
	<line class="st4" x1="347.1" y1="147.5" x2="330.4" y2="138.9"/>
	<line class="st4" x1="327.8" y1="137.8" x2="325.6" y2="136.8"/>
	<path class="st6" d="M253.9,46.8v3.8c0,5.8,4.8,10.6,10.6,10.6l0,0c5.8,0,10.6-4.8,10.6-10.6l0.4-3.8"/>
	<path class="st4" d="M260.6,54.4c0,1.5,1.8,2.7,3.9,2.7s3.9-1.2,3.9-2.7"/>
	<path class="st12" d="M261.8,49.2c0-0.5-0.8-0.9-1.8-0.9c-1,0-1.8,0.4-1.8,0.9"/>
	<path class="st12" d="M270.2,49.2c0-0.5-0.8-0.9-1.7-0.9c-1,0-1.7,0.4-1.7,0.9"/>
	<line class="st2" x1="267" y1="45.5" x2="270.5" y2="45.5"/>
	<line class="st2" x1="258.2" y1="45.5" x2="261.7" y2="45.5"/>
	<path class="st2" d="M254.5,43.6c0.4,0.1,0.7,0.2,1.1,0.3c2.9,0.4,5.6-0.9,7.1-3.1c0.6-0.8,1.8-0.8,2.4,0c1.5,2.2,4.2,3.5,7.1,3.1
		c0.7-0.1,1.3-0.3,2-0.6"/>
	<path class="st6" d="M254.2,51.7c-0.8,0.9-2.2,1-3.1,0.2c-0.9-0.8-1-2.2-0.2-3.1c0.8-0.9,2.2-1,3.1-0.2"/>
	<path class="st6" d="M274.8,51.7c0.8,0.9,2.2,1,3.1,0.2s1-2.2,0.2-3.1c-0.8-0.9-2.2-1-3.1-0.2"/>
	<polygon class="st9" points="251.3,47.1 252.6,49 253.6,48 253.1,46.3 	"/>
	<path class="st13" d="M253.9,46.1c0-3.9,3.2-7.1,7.1-7.1h7.4c3.8,0,6.8,3,6.8,6.8v1.3c0,1,1.4,1.4,1.9,0.4c0.6-1.3,1-2.8,1-4.3
		c0-6.3-3.1-11.5-9.4-11.5h-8.1c-6.1,0-9.5,4.5-10,10.6c-0.2,2.4,0.4,4.6,1.4,6.5c0.5,0.9,1.8,0.5,1.8-0.5V46.1z"/>
	<path class="st8" d="M298.5,84.7c-2.3,0-4.1,1.9-4.1,4.1"/>
	<path class="st8" d="M259,64.9c0,3.2,2.6,5.7,5.7,5.7c3.2,0,5.7-2.6,5.7-5.7"/>
	<path class="st11" d="M280.8,67.2c-1.2-1.9-2.5-2.4-4.9-2.4h-2.2c-0.4,0-0.7,0.3-0.7,0.7l0,5.1c0,3-2.5,5.5-5.5,5.5l-5.5,0
		c-3,0-5.5-2.5-5.5-5.5l0-5.5c0-0.2-0.1-0.3-0.3-0.3l0,0c-3.2,0-6.1,2.2-6.7,5.3c-0.2,0.9-0.2,1.8,0,2.6c-0.5,1.3-0.7,2.6-0.7,4
		v22.4c0,6.6,5.4,5.9,12,5.9H271c6.6,0,12,0.7,12-5.9V79.3"/>
	<path class="st8" d="M300.3,105.1l2.3-19.3c0.1-0.7,0.1-1.4-0.1-2c-0.3-1.1-1-1.9-1.9-2.5l-16.8-13.4c-1.9-1.5-4.7-1.4-6.3,0.3
		c-1.9,2-1.6,5.2,0.5,6.8l15.5,12c0.6,0.5,1,1.3,0.9,2l-1.9,15.5"/>
	<line class="st12" x1="203.5" y1="68.8" x2="290.7" y2="114.9"/>
	<line class="st13" x1="224.6" y1="80" x2="273.4" y2="105.8"/>
	<path class="st6" d="M232.9,76.6l-5.3,0.4c-1,0.1-1.8,1-1.7,2l0,0.3c0.1,1,1,1.8,2,1.7l5.3-0.4c1-0.1,1.8-1,1.7-2l0-0.3
		C234.8,77.3,233.9,76.5,232.9,76.6z"/>
	<path class="st6" d="M290.9,111l-0.7,6.7c-0.1,1,0.6,1.9,1.7,2l6.6,0.7c1,0.1,1.9-0.6,2-1.7l0.7-6.7"/>
	<path class="st6" d="M289.1,110l-0.2,0c-1-0.1-1.9,0.6-2,1.7l0,0.3c-0.1,1,0.6,1.9,1.7,2l0.2,0c1,0.1,1.9-0.6,2-1.7l0-0.3
		C290.8,111,290.1,110.1,289.1,110z"/>
	<path class="st6" d="M234.2,81.1l-0.2,0c-1-0.1-1.9,0.6-2,1.7l0,0.3c-0.1,1,0.6,1.9,1.7,2l0.2,0c1,0.1,1.9-0.6,2-1.7l0-0.3
		C236,82.1,235.3,81.2,234.2,81.1z"/>
	<path class="st10" d="M300.1,105.2l-6.6-0.7c-1-0.1-1.9,0.6-2,1.7l-0.7,6.7c-0.1,1,0.6,1.9,1.7,2l6.6,0.7c1,0.1,1.9-0.6,2-1.7
		l0.7-6.7C301.9,106.2,301.1,105.3,300.1,105.2z"/>
</g>
<g id="Слой_3">
</g>
</svg>
